# xmcd
# 
# Track frame offsets:
#     182
#     14815
#     30090
#     45090
#     62430
#     76765
#     93762
#     108517
#     123565
#     137182
#     152007
#     164680
# 
# Disc length: 2434
# 
# Revision: 2
# Processed by: cddbd v1.5.2PL0 Copyright (c) Steve Scherf et al.
# Submitted via: fre:ac v1.0.27
# 
DISCID=8a09800c
DTITLE=Dolly Parton - 169
DYEAR=1985
DGENRE=Country
TTITLE0=We Used To
TTITLE1=You're The Only One
TTITLE2=But You Know I Love You
TTITLE3=We Had It All
TTITLE4=Sweet Music Man
TTITLE5=My Girl (My Love)
TTITLE6=Almost In Love
TTITLE7=Sandy's Song
TTITLE8=I Really Don't Want To Know
TTITLE9=Sweet Summer Lovin'
TTITLE10=The Love I Used To Call Mine
TTITLE11=Starting Over Again
EXTD=
EXTT0=
EXTT1=
EXTT2=
EXTT3=
EXTT4=
EXTT5=
EXTT6=
EXTT7=
EXTT8=
EXTT9=
EXTT10=
EXTT11=
PLAYORDER=
